RBDS020runT35_grf
version=1
nRows=21
nColumns=19
inDegrees=no
endheader
time	ground_force_r_vx	ground_force_r_vy	ground_force_r_vz	ground_force_r_px	ground_force_r_py	ground_force_r_pz	ground_force_r_mx	ground_force_r_my	ground_force_r_mz	ground_force_l_vx	ground_force_l_vy	ground_force_l_vz	ground_force_l_px	ground_force_l_py	ground_force_l_pz	ground_force_l_mx	ground_force_l_my	ground_force_l_mz
     22.49800000	    -49.38306931	   1557.32350038	    -40.94190366	      2.15550463	      0.00000000	      1.06797058	     -0.00000000	      6.62340463	     -0.00000000	      0.00000000	      0.00000000	      0.00000000	      0.00000000	      0.00000000	      0.00000000	      0.00000000	      0.00000000	      0.00000000
     22.49900000	    -43.67991396	   1552.90847910	    -40.72941571	      2.15266000	      0.00000000	      1.06800098	     -0.00000000	      6.51665323	     -0.00000000	      0.00000000	      0.00000000	      0.00000000	      0.00000000	      0.00000000	      0.00000000	      0.00000000	      0.00000000	      0.00000000
     22.50000000	    -37.97675861	   1548.49345783	    -40.51692777	      2.14981536	      0.00000000	      1.06803139	     -0.00000000	      6.40990183	     -0.00000000	      0.00000000	      0.00000000	      0.00000000	      0.00000000	      0.00000000	      0.00000000	      0.00000000	      0.00000000	      0.00000000
     22.50100000	    -32.17191825	   1542.86582262	    -40.18669346	      2.14697397	      0.00000000	      1.06804558	     -0.00000000	      6.29500484	     -0.00000000	      0.00000000	      0.00000000	      0.00000000	      0.00000000	      0.00000000	      0.00000000	      0.00000000	      0.00000000	      0.00000000
     22.50200000	    -26.36707789	   1537.23818742	    -39.85645915	      2.14413257	      0.00000000	      1.06805978	     -0.00000000	      6.18010784	     -0.00000000	      0.00000000	      0.00000000	      0.00000000	      0.00000000	      0.00000000	      0.00000000	      0.00000000	      0.00000000	      0.00000000
     22.50300000	    -20.56223753	   1531.61055221	    -39.52622484	      2.14129117	      0.00000000	      1.06807397	     -0.00000000	      6.06521085	     -0.00000000	      0.00000000	      0.00000000	      0.00000000	      0.00000000	      0.00000000	      0.00000000	      0.00000000	      0.00000000	      0.00000000
     22.50400000	    -14.73468341	   1525.18078394	    -39.11970501	      2.13845132	      0.00000000	      1.06807664	     -0.00000000	      5.94670719	      0.00000000	      0.00000000	      0.00000000	      0.00000000	      0.00000000	      0.00000000	      0.00000000	      0.00000000	      0.00000000	      0.00000000
     22.50500000	     -8.89577240	   1518.34994914	    -38.67504241	      2.13561225	      0.00000000	      1.06807355	     -0.00000000	      5.82640019	      0.00000000	      0.00000000	      0.00000000	      0.00000000	      0.00000000	      0.00000000	      0.00000000	      0.00000000	      0.00000000	      0.00000000
     22.50600000	     -3.05686139	   1511.51911434	    -38.23037981	      2.13277317	      0.00000000	      1.06807045	     -0.00000000	      5.70609319	      0.00000000	      0.00000000	      0.00000000	      0.00000000	      0.00000000	      0.00000000	      0.00000000	      0.00000000	      0.00000000	      0.00000000
     22.50700000	      2.77134238	   1504.29306279	    -37.74966388	      2.12993391	      0.00000000	      1.06806148	     -0.00000000	      5.58491500	      0.00000000	      0.00000000	      0.00000000	      0.00000000	      0.00000000	      0.00000000	      0.00000000	      0.00000000	      0.00000000	      0.00000000
     22.50800000	      8.57813167	   1496.27657772	    -37.19684130	      2.12709427	      0.00000000	      1.06804074	     -0.00000000	      5.46199440	      0.00000000	      0.00000000	      0.00000000	      0.00000000	      0.00000000	      0.00000000	      0.00000000	      0.00000000	      0.00000000	      0.00000000
     22.50900000	     14.38492097	   1488.26009266	    -36.64401871	      2.12425463	      0.00000000	      1.06802001	     -0.00000000	      5.33907381	      0.00000000	      0.00000000	      0.00000000	      0.00000000	      0.00000000	      0.00000000	      0.00000000	      0.00000000	      0.00000000	      0.00000000
     22.51000000	     20.19171027	   1480.24360759	    -36.09119613	      2.12141499	      0.00000000	      1.06799928	     -0.00000000	      5.21615321	      0.00000000	      0.00000000	      0.00000000	      0.00000000	      0.00000000	      0.00000000	      0.00000000	      0.00000000	      0.00000000	      0.00000000
     22.51100000	     25.90197260	   1471.06710102	    -35.43910313	      2.11857027	      0.00000000	      1.06796133	     -0.00000000	      5.09337776	      0.00000000	      0.00000000	      0.00000000	      0.00000000	      0.00000000	      0.00000000	      0.00000000	      0.00000000	      0.00000000	      0.00000000
     22.51200000	     31.61223493	   1461.89059446	    -34.78701014	      2.11572556	      0.00000000	      1.06792339	     -0.00000000	      4.97060231	      0.00000000	      0.00000000	      0.00000000	      0.00000000	      0.00000000	      0.00000000	      0.00000000	      0.00000000	      0.00000000	      0.00000000
     22.51300000	     37.32249726	   1452.71408789	    -34.13491714	      2.11288084	      0.00000000	      1.06788544	     -0.00000000	      4.84782686	      0.00000000	      0.00000000	      0.00000000	      0.00000000	      0.00000000	      0.00000000	      0.00000000	      0.00000000	      0.00000000	      0.00000000
     22.51400000	     42.92686149	   1442.78654070	    -33.42407252	      2.11002896	      0.00000000	      1.06783683	     -0.00000000	      4.72689068	      0.00000000	      0.00000000	      0.00000000	      0.00000000	      0.00000000	      0.00000000	      0.00000000	      0.00000000	      0.00000000	      0.00000000
     22.51500000	     48.47827666	   1432.48347319	    -32.68385209	      2.10717351	      0.00000000	      1.06778287	     -0.00000000	      4.60687415	      0.00000000	      0.00000000	      0.00000000	      0.00000000	      0.00000000	      0.00000000	      0.00000000	      0.00000000	      0.00000000	      0.00000000
     22.51600000	     54.02969184	   1422.18040568	    -31.94363165	      2.10431806	      0.00000000	      1.06772892	     -0.00000000	      4.48685761	      0.00000000	      0.00000000	      0.00000000	      0.00000000	      0.00000000	      0.00000000	      0.00000000	      0.00000000	      0.00000000	      0.00000000
     22.51700000	     59.50818139	   1411.51547708	    -31.17836928	      2.10145695	      0.00000000	      1.06767029	     -0.00000000	      4.36854671	      0.00000000	      0.00000000	      0.00000000	      0.00000000	      0.00000000	      0.00000000	      0.00000000	      0.00000000	      0.00000000	      0.00000000
     22.51800000	     64.84081967	   1400.12682628	    -30.36302304	      2.09858451	      0.00000000	      1.06760231	     -0.00000000	      4.25364708	      0.00000000	      0.00000000	      0.00000000	      0.00000000	      0.00000000	      0.00000000	      0.00000000	      0.00000000	      0.00000000	      0.00000000
